HIERARCHY
ROOT CG
{
	OFFSET 0.000000 0.000000 27.772259
	CHANNELS 6 Xposition Yposition Zposition Xrotation Yrotation Zrotation
	JOINT Pelvis
	{
		OFFSET 0.000000 0.000000 0.000000
		CHANNELS 3 Xrotation Yrotation Zrotation
		JOINT Spine
		{
			OFFSET -0.000017 -10.490843 -0.495483
			CHANNELS 3 Xrotation Yrotation Zrotation
			JOINT Spine1
			{
				OFFSET -0.000010 -22.678980 0.018061
				CHANNELS 3 Xrotation Yrotation Zrotation
				JOINT Spine2
				{
					OFFSET -0.000010 -22.678967 0.018061
					CHANNELS 3 Xrotation Yrotation Zrotation
					JOINT Spine3
					{
						OFFSET -0.000010 -22.678982 0.018059
						CHANNELS 3 Xrotation Yrotation Zrotation
						JOINT Neck
						{
							OFFSET -0.000012 -22.678986 -1.289251
							CHANNELS 3 Xrotation Yrotation Zrotation
							JOINT Neck1
							{
								OFFSET -0.000007 -16.255905 0.012947
								CHANNELS 3 Xrotation Yrotation Zrotation
								JOINT Head
								{
									OFFSET -0.000005 -10.784607 -0.287502
									CHANNELS 3 Xrotation Yrotation Zrotation
									JOINT Jaw01
									{
										OFFSET 0.000031 7.782959 5.073944
										CHANNELS 3 Xrotation Yrotation Zrotation
										JOINT Jaw02
										{
											OFFSET 0.000004 -34.927139 -18.883980
											CHANNELS 3 Xrotation Yrotation Zrotation
											End Site
											{
												OFFSET -0.000170 8.372803 -38.812450
											}
										}
									}
									JOINT Nose
									{
										OFFSET -0.000002 -25.700912 7.222265
										CHANNELS 3 Xrotation Yrotation Zrotation
										End Site
										{
											OFFSET -0.000090 0.641281 -21.715439
										}
									}
									JOINT L_EyeSocket
									{
										OFFSET 7.352326 -19.832718 14.164183
										CHANNELS 3 Xrotation Yrotation Zrotation
										JOINT L_Eye
										{
											OFFSET -0.000868 -0.001053 0.016003
											CHANNELS 3 Xrotation Yrotation Zrotation
											End Site
											{
												OFFSET -0.001505 -0.001846 0.027969
											}
										}
										JOINT L_Eyelid_Top
										{
											OFFSET -0.001004 -0.002625 0.032516
											CHANNELS 3 Xrotation Yrotation Zrotation
											End Site
											{
												OFFSET -0.013218 0.005753 0.024086
											}
										}
										JOINT L_Eyelid_Bottom
										{
											OFFSET -0.001194 -0.002777 0.035381
											CHANNELS 3 Xrotation Yrotation Zrotation
											End Site
											{
												OFFSET -0.010032 0.008636 -0.024754
											}
										}
									}
									JOINT R_EyeSocket
									{
										OFFSET -7.352252 -19.832748 14.164206
										CHANNELS 3 Xrotation Yrotation Zrotation
										JOINT R_Eye
										{
											OFFSET 0.000875 -0.001068 0.015991
											CHANNELS 3 Xrotation Yrotation Zrotation
											End Site
											{
												OFFSET 0.001505 -0.001846 0.027962
											}
										}
										JOINT R_Eyelid_Top
										{
											OFFSET 0.001021 -0.002625 0.032516
											CHANNELS 3 Xrotation Yrotation Zrotation
											End Site
											{
												OFFSET 0.013214 0.005753 0.024078
											}
										}
										JOINT R_Eyelid_Bottom
										{
											OFFSET 0.001170 -0.002762 0.035366
											CHANNELS 3 Xrotation Yrotation Zrotation
											End Site
											{
												OFFSET 0.010029 0.008636 -0.024746
											}
										}
									}
								}
								JOINT Neck_Fat
								{
									OFFSET 0.000044 -9.595100 -17.491512
									CHANNELS 3 Xrotation Yrotation Zrotation
									End Site
									{
										OFFSET -0.000036 15.369423 -0.000007
									}
								}
							}
						}
						JOINT L_Clavicle
						{
							OFFSET 4.567107 -11.666092 -3.750029
							CHANNELS 3 Xrotation Yrotation Zrotation
							JOINT L_UpperArm
							{
								OFFSET 20.725666 -0.000053 -0.000032
								CHANNELS 3 Xrotation Yrotation Zrotation
								JOINT L_Forearm
								{
									OFFSET 5.265112 -0.585754 -20.155697
									CHANNELS 3 Xrotation Yrotation Zrotation
									JOINT L_Hand
									{
										OFFSET 2.653017 -10.877708 -16.383667
										CHANNELS 3 Xrotation Yrotation Zrotation
										JOINT L_Finger0
										{
											OFFSET -4.206146 -4.328911 -5.034346
											CHANNELS 3 Xrotation Yrotation Zrotation
											JOINT L_Finger01
											{
												OFFSET 0.084272 -1.788536 -4.181065
												CHANNELS 3 Xrotation Yrotation Zrotation
												End Site
												{
													OFFSET 3.261885 3.094673 -0.685818
												}
											}
										}
										JOINT L_Finger1
										{
											OFFSET -1.039112 -6.775742 -3.499998
											CHANNELS 3 Xrotation Yrotation Zrotation
											JOINT L_Finger11
											{
												OFFSET 1.320335 -3.040672 -6.425793
												CHANNELS 3 Xrotation Yrotation Zrotation
												End Site
												{
													OFFSET -1.244579 6.832077 -2.013330
												}
											}
										}
										JOINT L_Finger2
										{
											OFFSET 2.531296 -5.656487 -3.286415
											CHANNELS 3 Xrotation Yrotation Zrotation
											JOINT L_Finger21
											{
												OFFSET 1.991665 -2.402016 -5.957748
												CHANNELS 3 Xrotation Yrotation Zrotation
												End Site
												{
													OFFSET -2.793068 5.800873 -1.944178
												}
											}
										}
										JOINT L_Finger3
										{
											OFFSET 5.474075 -3.302338 -2.655975
											CHANNELS 3 Xrotation Yrotation Zrotation
											JOINT L_Finger31
											{
												OFFSET 2.026943 -1.267532 -5.961166
												CHANNELS 3 Xrotation Yrotation Zrotation
												End Site
												{
													OFFSET -4.375172 4.343658 -1.800320
												}
											}
										}
										JOINT L_Finger4
										{
											OFFSET 4.825745 1.085899 -2.321970
											CHANNELS 3 Xrotation Yrotation Zrotation
											JOINT L_Finger41
											{
												OFFSET 3.358261 -1.829651 -3.744434
												CHANNELS 3 Xrotation Yrotation Zrotation
												End Site
												{
													OFFSET -3.843296 2.955200 -2.267633
												}
											}
										}
									}
								}
							}
						}
						JOINT R_Clavicle
						{
							OFFSET -4.567111 -11.666092 -3.750036
							CHANNELS 3 Xrotation Yrotation Zrotation
							JOINT R_UpperArm
							{
								OFFSET -20.725670 -0.000031 0.000038
								CHANNELS 3 Xrotation Yrotation Zrotation
								JOINT R_Forearm
								{
									OFFSET -5.265285 -0.585762 -20.155655
									CHANNELS 3 Xrotation Yrotation Zrotation
									JOINT R_Hand
									{
										OFFSET -2.653147 -10.877739 -16.383663
										CHANNELS 3 Xrotation Yrotation Zrotation
										JOINT R_Finger0
										{
											OFFSET 4.206116 -4.328888 -5.034388
											CHANNELS 3 Xrotation Yrotation Zrotation
											JOINT R_Finger01
											{
												OFFSET -0.084324 -1.788544 -4.181051
												CHANNELS 3 Xrotation Yrotation Zrotation
												End Site
												{
													OFFSET -3.261890 3.094666 -0.685791
												}
											}
										}
										JOINT R_Finger1
										{
											OFFSET 1.039101 -6.775711 -3.499994
											CHANNELS 3 Xrotation Yrotation Zrotation
											JOINT R_Finger11
											{
												OFFSET -1.320374 -3.040672 -6.425779
												CHANNELS 3 Xrotation Yrotation Zrotation
												End Site
												{
													OFFSET 1.244556 6.832077 -2.013342
												}
											}
										}
										JOINT R_Finger2
										{
											OFFSET -2.531307 -5.656464 -3.286409
											CHANNELS 3 Xrotation Yrotation Zrotation
											JOINT R_Finger21
											{
												OFFSET -1.991707 -2.402016 -5.957708
												CHANNELS 3 Xrotation Yrotation Zrotation
												End Site
												{
													OFFSET 2.793037 5.800858 -1.944197
												}
											}
										}
										JOINT R_Finger3
										{
											OFFSET -5.474091 -3.302330 -2.655947
											CHANNELS 3 Xrotation Yrotation Zrotation
											JOINT R_Finger31
											{
												OFFSET -2.026993 -1.267532 -5.961157
												CHANNELS 3 Xrotation Yrotation Zrotation
												End Site
												{
													OFFSET 4.375156 4.343674 -1.800358
												}
											}
										}
										JOINT R_Finger4
										{
											OFFSET -4.825756 1.085922 -2.321926
											CHANNELS 3 Xrotation Yrotation Zrotation
											JOINT R_Finger41
											{
												OFFSET -3.358307 -1.829651 -3.744390
												CHANNELS 3 Xrotation Yrotation Zrotation
												End Site
												{
													OFFSET 3.843273 2.955208 -2.267666
												}
											}
										}
									}
								}
							}
						}
					}
				}
			}
		}
		JOINT Tail01
		{
			OFFSET -0.000010 10.922326 -0.017508
			CHANNELS 3 Xrotation Yrotation Zrotation
			JOINT Tail02
			{
				OFFSET -0.000022 21.986111 0.000013
				CHANNELS 3 Xrotation Yrotation Zrotation
				JOINT Tail03
				{
					OFFSET -0.000022 21.986118 0.000002
					CHANNELS 3 Xrotation Yrotation Zrotation
					JOINT Tail04
					{
						OFFSET -0.000022 21.986122 0.000004
						CHANNELS 3 Xrotation Yrotation Zrotation
						JOINT Tail05
						{
							OFFSET -0.000022 21.986099 0.000010
							CHANNELS 3 Xrotation Yrotation Zrotation
							JOINT Tail06
							{
								OFFSET -0.000022 21.986099 0.000006
								CHANNELS 3 Xrotation Yrotation Zrotation
								JOINT Tail07
								{
									OFFSET -0.000022 21.986099 0.000000
									CHANNELS 3 Xrotation Yrotation Zrotation
									JOINT Tail08
									{
										OFFSET -0.000022 21.984848 0.000050
										CHANNELS 3 Xrotation Yrotation Zrotation
										JOINT Tail09
										{
											OFFSET -0.000025 21.926025 -1.606211
											CHANNELS 3 Xrotation Yrotation Zrotation
											JOINT Tail10
											{
												OFFSET -0.000027 21.750092 -3.203882
												CHANNELS 3 Xrotation Yrotation Zrotation
												End Site
												{
													OFFSET -0.000036 4.767395 21.461668
												}
											}
										}
									}
								}
							}
						}
					}
				}
			}
		}
		JOINT L_Thigh
		{
			OFFSET 24.788780 0.000021 -0.000034
			CHANNELS 3 Xrotation Yrotation Zrotation
			JOINT L_Calf
			{
				OFFSET 4.720837 4.161326 -21.049969
				CHANNELS 3 Xrotation Yrotation Zrotation
				JOINT L_Foot
				{
					OFFSET 2.154160 21.114433 -11.949743
					CHANNELS 3 Xrotation Yrotation Zrotation
					JOINT L_Toe0
					{
						OFFSET 4.557564 9.251841 -8.735286
						CHANNELS 3 Xrotation Yrotation Zrotation
						End Site
						{
							OFFSET 4.555542 -12.646044 1.018752
						}
					}
					JOINT L_Toe1
					{
						OFFSET 2.346291 5.845602 -11.687160
						CHANNELS 3 Xrotation Yrotation Zrotation
						End Site
						{
							OFFSET 5.347954 -12.298279 1.365644
						}
					}
					JOINT L_Toe2
					{
						OFFSET -0.356020 3.902458 -12.541145
						CHANNELS 3 Xrotation Yrotation Zrotation
						End Site
						{
							OFFSET 3.916235 -12.806129 1.542549
						}
					}
					JOINT L_Toe3
					{
						OFFSET -4.603447 3.183935 -12.435249
						CHANNELS 3 Xrotation Yrotation Zrotation
						End Site
						{
							OFFSET 3.810858 -12.587427 2.957583
						}
					}
					JOINT L_Toe4
					{
						OFFSET -7.144358 6.231495 -10.072764
						CHANNELS 3 Xrotation Yrotation Zrotation
						End Site
						{
							OFFSET 3.810858 -12.587425 2.957585
						}
					}
				}
			}
		}
		JOINT R_Thigh
		{
			OFFSET -24.788780 -0.000024 0.000034
			CHANNELS 3 Xrotation Yrotation Zrotation
			JOINT R_Calf
			{
				OFFSET -4.720922 4.161324 -21.049952
				CHANNELS 3 Xrotation Yrotation Zrotation
				JOINT R_Foot
				{
					OFFSET -2.154238 21.114414 -11.949730
					CHANNELS 3 Xrotation Yrotation Zrotation
					JOINT R_Toe0
					{
						OFFSET -4.557598 9.251823 -8.735270
						CHANNELS 3 Xrotation Yrotation Zrotation
						End Site
						{
							OFFSET -4.555508 -12.646051 1.018756
						}
					}
					JOINT R_Toe1
					{
						OFFSET -2.346325 5.845589 -11.687157
						CHANNELS 3 Xrotation Yrotation Zrotation
						End Site
						{
							OFFSET -5.347919 -12.298286 1.365654
						}
					}
					JOINT R_Toe2
					{
						OFFSET 0.355980 3.902462 -12.541145
						CHANNELS 3 Xrotation Yrotation Zrotation
						End Site
						{
							OFFSET -3.916199 -12.806131 1.542559
						}
					}
					JOINT R_Toe3
					{
						OFFSET 4.603411 3.183941 -12.435266
						CHANNELS 3 Xrotation Yrotation Zrotation
						End Site
						{
							OFFSET -3.810825 -12.587429 2.957591
						}
					}
					JOINT R_Toe4
					{
						OFFSET 7.144323 6.231503 -10.072779
						CHANNELS 3 Xrotation Yrotation Zrotation
						End Site
						{
							OFFSET -3.810825 -12.587433 2.957584
						}
					}
				}
			}
		}
	}
}
MOTION
Frames: 5
Frame Time: 0.033333
35.992710 -0.000004 27.772259 0.000000 0.000000 -0.000109 0.000001 0.000000 13.456148 -0.000523 0.005020 6.259687 0.000385 -0.010527 5.489130 -0.006271 -0.006569 4.836690 -0.004760 0.041585 2.573520 -0.000068 -0.000058 11.556149 -0.000054 -0.000105 12.146773 0.004768 -0.000075 0.207643 -16.238073 -0.000022 0.000025 0.000012 -0.000000 -0.000000 0.000021 0.000000 0.000002 -0.000005 0.000007 -0.000017 0.000123 -0.000077 0.000012 0.000005 0.000002 0.000003 0.000007 -0.000004 0.000010 0.000000 -0.000000 0.000003 0.000122 0.000076 -0.000017 -0.000000 0.000001 -0.000000 -0.000012 0.000000 -0.000009 -0.000000 -0.000000 0.000001 0.001189 15.425183 10.175346 87.938037 -18.658718 15.947623 5.331841 -0.765383 1.451038 13.277089 5.371201 -5.843968 13.939789 0.095264 -1.684844 7.965931 -4.735939 0.227543 7.898360 1.725529 0.708623 7.476820 1.641154 0.677520 7.137609 3.788472 0.647190 6.760324 3.585001 0.626396 5.558055 5.900939 0.349746 5.262661 5.587098 0.354119 4.563260 6.679712 0.602243 4.321991 6.317207 0.589628 0.000577 -18.444849 -11.355493 89.421007 25.164874 -27.101301 5.390472 0.773025 -1.467398 18.012933 -0.288922 12.859374 6.819340 -7.693811 4.438913 -4.451913 -8.284902 5.021243 -10.860566 2.178441 1.348811 -10.859425 2.186534 1.345332 -9.886533 4.996703 1.647005 -9.885878 4.998692 1.647498 -7.740678 7.966041 1.424616 -7.745961 7.971607 1.426285 -6.446436 9.014036 1.708395 -6.442758 9.018787 1.709101 0.634022 4.951839 -7.648903 0.986194 0.229595 -10.972275 0.384754 0.228083 -4.249501 0.521424 0.226176 -5.354234 1.003667 0.219316 -9.704685 1.457926 0.199680 -13.316631 1.860839 0.181004 -15.912722 1.889882 -1.148869 -18.142941 1.627964 -3.064125 -22.158761 0.294313 -6.149706 -24.595854 7.385110 -2.796984 -2.494458 30.435647 2.640382 6.472741 35.466713 -1.272050 1.658545 14.851886 6.554702 4.804935 14.878090 7.494334 3.294874 16.254295 5.325579 0.855922 16.538460 4.476922 -1.834775 16.254761 3.122649 -5.011321 39.753504 -0.418789 4.581962 -2.986072 0.065793 0.688012 40.169015 2.877750 -9.136135 0.002492 -0.004598 -0.001259 0.001438 -0.008382 -0.000797 0.004221 0.002118 -0.006019 0.002520 -0.003432 0.008420 0.002820 -0.003750 0.001724 
37.865158 -0.000005 27.772259 0.000000 0.000000 -0.000109 0.000001 0.000001 12.653062 -0.000445 0.005028 5.368138 -0.000752 0.000999 5.264925 0.011819 0.003289 4.598118 -0.059894 0.053144 3.021428 -0.000066 -0.000058 12.217642 -0.000050 -0.000105 13.021649 0.016154 -0.050461 0.272583 -16.244015 -0.000022 0.000024 0.000015 -0.000001 0.000002 0.000021 -0.000000 0.000006 -0.000005 0.000007 -0.000013 0.000124 -0.000077 0.000008 0.000008 0.000003 0.000003 0.000005 -0.000004 0.000010 0.000001 0.000000 0.000002 0.000123 0.000077 -0.000017 -0.000000 0.000001 0.000003 -0.000012 -0.000002 -0.000003 -0.000000 0.000000 -0.000000 0.001297 15.636096 10.425369 88.631615 -18.992931 17.326588 6.082558 -0.861984 1.660429 11.648526 5.205152 -6.040630 13.470915 0.574653 -1.891517 7.010394 -3.821382 -0.256136 6.624743 1.439691 0.611129 6.133319 1.339713 0.571539 5.986846 3.172484 0.576146 5.546064 2.935230 0.544925 4.660079 4.946921 0.334963 4.316146 4.580293 0.328254 3.828391 5.596683 0.540489 3.546759 5.178126 0.518529 -0.000039 -18.342277 -11.246128 88.159007 26.052720 -24.470642 2.771341 0.415043 -0.746015 18.507340 -0.841647 12.751988 7.216842 -7.252361 4.308609 -4.093189 -7.880678 4.903966 -10.309545 2.073713 1.269261 -10.308134 2.082250 1.267391 -9.381785 4.749427 1.542150 -9.380512 4.753003 1.543227 -7.337282 7.563327 1.324356 -7.346116 7.573199 1.327497 -6.114080 8.558796 1.595771 -6.106976 8.567240 1.597186 0.635702 4.949934 -7.670963 0.963832 0.222387 -10.799399 0.344340 0.220779 -3.871635 0.446033 0.219134 -4.673097 0.891926 0.214164 -8.680728 1.300657 0.198238 -11.978125 1.654279 0.183266 -14.353545 1.693800 -1.029133 -16.528178 1.473944 -2.869231 -20.809141 0.227195 -5.827522 -23.838945 8.114984 -2.342448 -2.779677 29.666237 2.532258 6.329156 34.564193 -1.742205 2.161898 14.991092 6.623012 4.842217 15.018461 7.569538 3.316577 16.407328 5.381397 0.861095 16.698489 4.509477 -1.863613 16.413392 3.136587 -5.061176 39.492396 0.178510 3.910007 -2.576890 0.058897 0.593550 41.183473 1.919580 -8.384678 -0.000013 0.000001 -0.000004 0.000001 0.000001 -0.000000 0.000420 0.001347 -0.000162 -0.001302 -0.004298 0.001013 -0.001556 -0.005101 0.001200 
39.565922 -0.000005 27.772259 0.000000 0.000000 -0.000109 0.000000 0.000000 11.145266 -0.000406 0.005032 4.918882 -0.003520 0.031829 4.990855 0.014258 0.031877 4.528902 -0.157056 0.090977 3.824726 -0.000064 -0.000057 12.827137 -0.000047 -0.000104 13.973928 0.038133 -0.189654 0.276281 -16.256815 -0.000019 0.000023 0.000012 -0.000001 0.000004 0.000020 -0.000000 0.000003 -0.000005 0.000007 -0.000015 0.000124 -0.000076 0.000010 0.000006 0.000004 0.000002 0.000003 -0.000005 0.000012 0.000000 0.000000 -0.000003 0.000122 0.000077 -0.000010 0.000002 -0.000001 0.000001 -0.000012 -0.000002 -0.000002 0.000000 -0.000000 -0.000000 0.001156 15.840390 10.665347 89.454591 -19.465201 18.772961 6.495252 -0.913896 1.776030 10.068877 5.030123 -6.230945 13.038263 1.019244 -2.081657 6.105147 -2.938412 -0.705724 5.412241 1.170305 0.512525 4.847264 1.053647 0.463541 4.890774 2.589241 0.499168 4.383800 2.315171 0.454122 3.806207 4.039508 0.308419 3.411064 3.617354 0.287937 3.129464 4.566966 0.471291 2.804750 4.089069 0.436148 -0.000746 -18.210555 -11.152888 86.664042 26.406599 -21.429129 -0.737658 -0.116661 0.195353 18.513675 -1.709251 12.560431 7.790810 -6.616664 4.112912 -3.604247 -7.332810 4.739487 -9.560360 1.930421 1.162526 -9.558637 1.939232 1.163016 -8.695705 4.413308 1.403683 -8.694196 4.417409 1.404966 -6.794828 7.019200 1.194401 -6.803998 7.030273 1.197802 -5.660606 7.942534 1.448154 -5.652345 7.952102 1.449463 0.633791 4.949123 -7.650335 0.931555 0.204177 -10.545722 0.305772 0.202162 -3.547140 0.377790 0.200854 -4.074380 0.778860 0.198037 -7.700149 1.136118 0.185748 -10.620866 1.431066 0.174578 -12.702548 1.482686 -0.907732 -14.763939 1.309408 -2.642256 -19.191923 0.173666 -5.462534 -22.772407 9.287485 -1.842868 -2.887528 28.424792 2.361956 6.094550 33.947765 -2.428062 2.767007 15.398243 6.822165 4.952794 15.429455 7.789197 3.380150 16.860214 5.532656 0.863447 17.162162 4.625311 -1.934204 16.868371 3.205969 -5.215375 39.036126 1.047174 3.199217 -2.041838 0.048870 0.470116 42.719510 0.542416 -7.541428 -0.000014 0.000004 -0.000002 0.000001 0.000003 -0.000000 -0.000002 0.000000 -0.000001 -0.001023 -0.003374 0.000795 -0.001924 -0.006355 0.001492 
41.062626 -0.000005 27.772259 0.000000 0.000000 -0.000109 0.000000 0.000000 9.166452 -0.000389 0.005033 4.809129 -0.007460 0.080426 4.715226 0.004119 0.078770 4.597663 -0.285390 0.150069 4.882464 -0.000062 -0.000057 13.408484 -0.000043 -0.000103 14.969471 0.050188 -0.400795 0.245129 -16.275919 -0.000024 0.000023 0.000012 0.000001 -0.000001 0.000020 -0.000000 -0.000002 -0.000005 0.000007 -0.000018 0.000123 -0.000077 0.000013 0.000005 -0.000002 0.000002 0.000007 -0.000005 0.000012 0.000000 0.000000 -0.000005 0.000122 0.000076 -0.000013 0.000002 -0.000001 -0.000000 -0.000012 -0.000000 -0.000006 0.000000 0.000000 -0.000000 0.000982 16.024565 10.869672 90.346225 -19.984053 20.234673 6.512924 -0.916103 1.780988 8.580769 4.849612 -6.404411 12.659227 1.410244 -2.246602 5.278399 -2.117219 -1.105754 4.304069 0.926594 0.417596 3.661912 0.792276 0.358372 3.887450 2.064914 0.416744 3.312419 1.745588 0.359360 3.026734 3.210759 0.270155 2.577275 2.730767 0.237344 2.490538 3.628458 0.397036 2.120465 3.086650 0.347830 -0.000732 -18.051509 -11.070341 84.976706 26.344275 -18.080160 -4.917496 -0.825707 1.274684 18.150118 -2.782725 12.308308 8.509025 -5.826410 3.858952 -2.996232 -6.655014 4.529033 -8.631166 1.751104 1.033086 -8.629150 1.759898 1.036140 -7.845644 3.994985 1.238000 -7.844195 3.998758 1.239122 -6.126434 6.345046 1.041553 -6.133926 6.354982 1.044274 -5.099090 7.178615 1.272721 -5.091379 7.187295 1.273324 0.626780 4.949794 -7.569449 0.891924 0.175516 -10.140171 0.265304 0.172848 -3.181878 0.314339 0.171941 -3.535573 0.671281 0.171299 -6.855617 0.975097 0.162433 -9.424146 1.206485 0.154859 -11.113070 1.268642 -0.783048 -12.814402 1.146512 -2.356170 -17.105565 0.150933 -5.010584 -21.147196 10.808949 -1.301199 -2.970841 26.784474 2.144907 5.779214 33.613348 -3.316905 3.482536 16.039427 7.137934 5.126144 16.077512 8.136720 3.477909 17.574644 5.771916 0.865243 17.893818 4.807538 -2.048277 17.586827 3.309991 -5.460861 38.373922 2.043235 2.399737 -1.392447 0.035142 0.320421 44.733685 -1.119301 -6.654587 -0.000014 -0.000004 0.000001 0.000000 0.000001 -0.000000 0.000116 0.000375 -0.000047 -0.000577 -0.001929 0.000453 -0.002070 -0.006756 0.001585 
42.300385 -0.000005 27.772259 0.000000 0.000000 -0.000109 0.000000 0.000000 6.908759 -0.000404 0.005032 4.896754 -0.012270 0.145246 4.486322 -0.013852 0.143527 4.761039 -0.433690 0.224115 6.054969 -0.000060 -0.000056 13.995890 -0.000039 -0.000102 15.961464 0.037463 -0.667063 0.205518 -16.300887 -0.000020 0.000021 0.000013 0.000000 0.000001 0.000020 0.000000 0.000000 -0.000005 0.000007 -0.000015 0.000124 -0.000077 0.000013 0.000005 -0.000001 0.000000 0.000003 -0.000005 0.000012 0.000000 -0.000000 -0.000002 0.000122 0.000077 -0.000013 0.000001 -0.000001 0.000001 -0.000012 -0.000000 -0.000005 -0.000000 -0.000000 -0.000003 0.000925 16.176953 11.018015 91.232415 -20.465187 21.651700 6.023047 -0.854429 1.643790 7.215688 4.662542 -6.550612 12.346572 1.736342 -2.375101 4.550288 -1.382034 -1.445685 3.333013 0.715033 0.330645 2.610306 0.562332 0.260607 3.011812 1.595277 0.333331 2.361679 1.242002 0.266435 2.345491 2.484279 0.221164 1.837598 1.945165 0.181706 1.930146 2.808192 0.322130 1.512767 2.198567 0.259541 -0.000242 -17.872259 -10.996633 83.122685 25.944093 -14.528477 -9.459507 -1.685897 2.389333 17.576804 -3.962702 11.972742 9.330866 -4.932065 3.559005 -2.280039 -5.861103 4.273564 -7.540024 1.538230 0.885571 -7.537836 1.546629 0.890846 -6.848841 3.501035 1.051590 -6.847693 3.503884 1.052372 -5.345203 5.552171 0.872619 -5.350114 5.559479 0.874297 -4.442414 6.280258 1.076481 -4.436532 6.286687 1.076393 0.624142 4.950970 -7.537599 0.848206 0.136971 -9.697485 0.227279 0.133527 -2.821487 0.251269 0.132981 -3.000344 0.563482 0.134264 -6.020102 0.816717 0.128493 -8.242442 0.987624 0.124089 -9.558580 1.061099 -0.669291 -10.865105 0.992266 -2.049769 -14.820078 0.152358 -4.499108 -19.121400 12.611445 -0.727620 -3.145677 24.841420 1.899752 5.398123 33.555890 -4.381483 4.301905 16.876428 7.555056 5.342442 16.923762 8.592727 3.596921 18.507740 6.085078 0.861773 18.850678 5.040940 -2.198485 18.528852 3.434474 -5.776875 37.529960 3.063159 1.454099 -0.649322 0.017359 0.149317 47.113757 -2.946442 -5.767604 -0.000013 0.000011 -0.000011 0.000002 0.000004 -0.000000 0.000426 0.001365 -0.000169 -0.000178 -0.000586 0.000138 -0.002002 -0.006519 0.001534 
